# xmcd CD database file
# Copyright (C) 1993-1998 Ti Kan
# 
# Track frame offsets:
#     150
#     12305
#     23767
#     35955
#     46527
# 
# Disc length: 744 seconds
# 
# Revision: 1
# Processed by: cddbd v1.4b41PL1 Copyright (c) Steve Scherf et al.
# Submitted via: DiscPlay 4.0.4
# 
DISCID=3302e605
DTITLE=Loosegoat - Country Crock
DYEAR=1900
DGENRE=
TTITLE0=Country Crock
TTITLE1=It's so ok
TTITLE2=Ten Speed
TTITLE3=Stop drop-in Inn
TTITLE4=Broken Babe
EXTD=
EXTT0=
EXTT1=
EXTT2=
EXTT3=
EXTT4=
PLAYORDER=
